<svg xmlns="http://www.w3.org/2000/svg" width="40pt" height="40pt" viewBox="0 0 40 40"><path d="M39.684 19.84c0 4.836-1.73 9.265-4.606 12.71a19.887 19.887 0 0 1-8.23 5.86c-.7.262-1.414.488-2.141.672l-.492.117c-.094.02-.188.04-.285.063-.028.004-.055.011-.086.015-.36.075-.723.137-1.086.192a19.997 19.997 0 0 1-6.863-.18C6.828 37.465 0 29.45 0 19.84 0 8.884 8.883 0 19.84 0 30.8 0 39.684 8.883 39.684 19.84zm0 0" fill="rgb(24.705882%,71.764706%,46.666667%)"/><path d="M39.684 12.39c0 6.383-5.18 11.563-11.567 11.563-6.383 0-11.558-5.18-11.558-11.562 0-6.387 5.175-11.563 11.558-11.563 6.387 0 11.567 5.176 11.567 11.559zm0 0" fill="rgb(96.862745%,30.980392%,30.980392%)"/><path d="M37.09 12.39c0 4.954-4.016 8.97-8.973 8.97a8.969 8.969 0 0 1 0-17.938c4.957 0 8.973 4.015 8.973 8.969zm0 0" fill="rgb(94.901961%,94.117647%,92.54902%)"/><path d="M34.46 12.39a6.34 6.34 0 0 1-6.343 6.34 6.338 6.338 0 0 1-6.238-6.34 6.338 6.338 0 0 1 6.238-6.34 6.337 6.337 0 0 1 6.344 6.337zm0 0" fill="rgb(96.862745%,30.980392%,30.980392%)"/><path d="M31.355 12.39a3.232 3.232 0 0 1-1.597 2.864 3.245 3.245 0 0 1-3.281 0 3.24 3.24 0 0 1-1.594-2.867 3.237 3.237 0 0 1 6.472 0zm0 0" fill="rgb(94.901961%,94.117647%,92.54902%)"/><path d="M29.34 12.39a1.219 1.219 0 1 1-2.438-.003 1.218 1.218 0 1 1 2.438 0zm0 0" fill="rgb(96.862745%,30.980392%,30.980392%)"/><path d="M23.79 34.844v4.445c-1.302.262-2.622.395-3.95.395-6.121 0-11.598-2.778-15.238-7.133a7.378 7.378 0 0 1 6.406-5.055c.199-.016.402-.027.601-.027h4.801c.54 0 1.063.062 1.567.168l.085.02a7.368 7.368 0 0 1 2.55 1.125 7.38 7.38 0 0 1 3.177 6.062zm0 0" fill="rgb(23.921569%,25.490196%,34.901961%)"/><path d="M18.34 27.637l-.02.086-2.48 11.554c-.031-.004-.059-.011-.09-.015a18.878 18.878 0 0 1-2.914-.856 5.18 5.18 0 0 1-.316-.117c-.2-.082-.403-.164-.602-.254L9.699 27.723l-.015-.086zm0 0" fill="rgb(86.666667%,90.980392%,92.941176%)"/><path d="M15.992 30.133l-1.98 3.172-1.98-3.172" fill="rgb(96.862745%,30.980392%,30.980392%)"/><path d="M15.754 39.262a19.355 19.355 0 0 1-3.234-.973l1.492-5.809zm0 0" fill="rgb(96.862745%,30.980392%,30.980392%)"/><path d="M14.008 30.492l-3.317 1.844-1.007-4.7 2.058-1.214m2.266 4.07l3.324 1.844 1.008-4.7-2.059-1.214" fill="rgb(74.901961%,83.529412%,87.058824%)"/><path d="M18.465 33.977h1.055l-2.235 5.437c-.12.02-.238.04-.363.055a20.964 20.964 0 0 1-1.95-.387L18.34 27.23l2.273 1.149zm-5.63 4.433a19.83 19.83 0 0 1-3.163-1.527L8.48 33.977h1.055l-2.148-5.598 2.297-1.063zm0 0" fill="rgb(16.470588%,18.431373%,30.980392%)"/><path d="M16.64 24.633v3.226c.005.7-.273 1.368-.769 1.86a2.625 2.625 0 0 1-1.863.773 2.63 2.63 0 0 1-2.625-2.633v-3.226zm0 0" fill="rgb(91.764706%,70.980392%,60%)"/><path d="M16.64 27.652v.207a2.624 2.624 0 0 1-1.847 2.512 2.63 2.63 0 0 1-1.836-2.168 9.03 9.03 0 0 0 3.684-.55zM6.798 19.34a2.447 2.447 0 0 1-2.45 2.445c-.648 0-1.269-.258-1.73-.715a2.446 2.446 0 1 1 4.18-1.73zm0 0" fill="rgb(96.470588%,79.215686%,68.235294%)"/><path d="M6.797 19.34c0 1.2-.871 2.223-2.055 2.414a9.045 9.045 0 0 1 0-4.832 2.457 2.457 0 0 1 2.055 2.418zm0 0" fill="rgb(91.764706%,70.980392%,60%)"/><path d="M5.223 19.34a.872.872 0 0 1-.875.828.871.871 0 0 1-.871-.828c0-.48.39-.875.87-.875.485 0 .876.394.876.875zm0 0" fill="rgb(91.764706%,70.980392%,60%)"/><path d="M21.227 19.34a2.447 2.447 0 1 0 2.45-2.45 2.45 2.45 0 0 0-2.45 2.45zm0 0" fill="rgb(96.470588%,79.215686%,68.235294%)"/><path d="M21.227 19.34c0 1.2.87 2.223 2.054 2.414a9.045 9.045 0 0 0 0-4.832 2.453 2.453 0 0 0-2.054 2.418zm0 0" fill="rgb(91.764706%,70.980392%,60%)"/><path d="M23.113 14.574v3.465a9.1 9.1 0 0 1-7.64 8.984l-.047.008a8.604 8.604 0 0 1-1.418.11c-5.024 0-9.102-4.075-9.102-9.102v-3.48a9.084 9.084 0 0 1 .516-3.004c1.246-3.543 4.621-6.082 8.586-6.082h.004c.48 0 .957.035 1.418.109 4.351.68 7.683 4.45 7.683 8.992zm0 0" fill="rgb(91.764706%,70.980392%,60%)"/><path d="M24.547 19.34a.872.872 0 0 1-.875.828.871.871 0 0 1-.871-.828c0-.48.39-.875.87-.875.485 0 .876.394.876.875zm0 0" fill="rgb(91.764706%,70.980392%,60%)"/><path d="M23.113 14.574v3.465a9.1 9.1 0 0 1-7.64 8.984l-.047.008a9.1 9.1 0 0 1-7.68-8.992v-3.465a9.102 9.102 0 0 1 7.684-8.992c4.351.68 7.683 4.45 7.683 8.992zm0 0" fill="rgb(96.470588%,79.215686%,68.235294%)"/><path d="M11.598 16.117h6.058v3.301h-6.058zm0 0" fill="rgb(91.764706%,70.980392%,60%)"/><path d="M7.91 17.242a2.557 2.557 0 0 0 2.527 2.516h.184a2.553 2.553 0 0 0 2.516-2.559v.04-.81l-.028-1.003a.328.328 0 0 0-.222-.301 7.14 7.14 0 0 0-4.754.012.324.324 0 0 0-.223.308v1.836" fill="rgb(86.666667%,90.980392%,92.941176%)"/><path d="M8.316 17.281h-.812v-1.836c0-.308.195-.59.492-.691a7.588 7.588 0 0 1 5.024-.012c.289.102.484.367.492.672l.031 1.016v.812h-.809v-.805l-.03-.945a6.803 6.803 0 0 0-4.388.004zm0 0" fill="rgb(23.921569%,25.490196%,34.901961%)"/><path d="M10.523 20.164c-.027 0-.058 0-.09-.004a2.944 2.944 0 0 1-2.93-2.91l.407-.008h.406a2.14 2.14 0 0 0 2.125 2.11h.172a2.16 2.16 0 0 0 2.121-2.153h.809a2.968 2.968 0 0 1-2.918 2.961c-.035 0-.07.004-.105.004zm0 0" fill="rgb(100%,88.235294%,32.156863%)"/><path d="M15.078 17.242a2.557 2.557 0 0 0 2.527 2.516h.184a2.553 2.553 0 0 0 2.516-2.559v.04-.81l-.028-1.003a.328.328 0 0 0-.222-.301 7.152 7.152 0 0 0-4.758.012.32.32 0 0 0-.219.308v1.836" fill="rgb(86.666667%,90.980392%,92.941176%)"/><path d="M15.484 17.281h-.812v-1.836c0-.308.195-.59.492-.691a7.588 7.588 0 0 1 5.024-.012c.285.102.48.367.496.672l.027 1.016v.812h-.813v-.805l-.027-.945a6.777 6.777 0 0 0-4.387.004zm0 0" fill="rgb(23.921569%,25.490196%,34.901961%)"/><path d="M17.691 20.164c-.03 0-.058 0-.09-.004a2.944 2.944 0 0 1-2.93-2.91l.407-.008h.406a2.137 2.137 0 0 0 2.125 2.11h.172a2.16 2.16 0 0 0 2.117-2.153h.813a2.973 2.973 0 0 1-2.918 2.961c-.035 0-.07.004-.102.004zm0 0" fill="rgb(100%,88.235294%,32.156863%)"/><path d="M13.11 15.426h1.968v.808H13.11zm10.003-.774v.848l-2.203.695-.004.004-.484.16-.258-.77.621-.202.004-.004zM8.04 15.59l-.258.77-.554-.184-2.32-.766v-.851l2.445.8zm4.031 1.515c0 .57-.46 1.036-1.03 1.036a1.038 1.038 0 0 1 0-2.07c.57 0 1.03.464 1.03 1.03zm5.946 0c0 .57-.461 1.036-1.032 1.036a1.041 1.041 0 0 1-.988-1.036c0-.55.438-1.007.988-1.035.57 0 1.032.465 1.032 1.032zm0 0" fill="rgb(23.921569%,25.490196%,34.901961%)"/><path d="M11.86 16.922a.424.424 0 0 1-.126.312.428.428 0 0 1-.312.13.44.44 0 0 1-.445-.442c0-.242.199-.442.445-.442.242 0 .437.2.437.442zm5.995 0a.443.443 0 0 1-.886 0 .444.444 0 0 1 .886 0zm0 0" fill="rgb(100%,100%,100%)"/><path d="M15.223 19.867h-2.258a.445.445 0 1 1 0-.89h2.258c.246 0 .441.199.441.445s-.2.445-.441.445zm-1.211 2.656a4.594 4.594 0 0 1-2.219-.574.405.405 0 0 1 .39-.71 3.786 3.786 0 0 0 3.66 0 .406.406 0 0 1 .387.71c-.68.375-1.44.57-2.218.574zm0 0" fill="rgb(91.764706%,70.980392%,60%)"/><path d="M23.113 11.426v3.554h-1.695V12.2L9.191 9.925l-2.59-.48v5.534h-1.69v-3.554a7.331 7.331 0 0 1 7.327-7.328h3.547c.098 0 .195.004.29.011a7.32 7.32 0 0 1 7.038 7.317zm0 0" fill="rgb(16.470588%,18.431373%,30.980392%)"/><path d="M23.113 11.426v3.554h-1.695V12.2L9.191 9.925a7.322 7.322 0 0 1 6.883-5.817 7.32 7.32 0 0 1 7.04 7.317zm0 0" fill="rgb(23.921569%,25.490196%,34.901961%)"/><path d="M38.992 8.766l-2.14-1.485-.247-2.593-3.648 2.136.16 1.703-5.406 3.164.816 1.399 5.407-3.168 1.41.976zm0 0" fill="rgb(86.666667%,18.823529%,20%)"/><path d="M38.992 8.766l-2.14-1.485-.247-2.593-3.648 2.136.16 1.703-5.406 3.164.816 1.399 5.407-3.168 1.41.976zm0 0" fill="rgb(86.666667%,18.823529%,20%)"/><path d="M36.781 10.059l-1.437.84-1.364-.946a6.347 6.347 0 0 0-.867-1.473l-.16-1.656 1.442-.844a8.907 8.907 0 0 1 2.386 4.079zm0 0" fill="rgb(84.705882%,83.529412%,81.568627%)"/><path d="M30.816 5.207l2.993-2.992.89 2.45-2.988 2.991zm0 0" fill="rgb(90.980392%,78.823529%,20.392157%)"/><path d="M35.844 5.809l-6.985 6.984a.809.809 0 0 1-1.144-1.14l6.984-6.989zm0 0" fill="rgb(23.921569%,25.490196%,34.901961%)"/><path d="M34.73 9.121L37.72 6.13l-2.446-.89-2.992 2.991zm0 0" fill="rgb(100%,88.235294%,32.156863%)"/><path d="M21.625 34.344v2.445a.991.991 0 1 0 1.984 0v-2.445c0-.328-.164-.637-.437-.824a1 1 0 0 0-.926-.102c-.375.156-.621.52-.621.926zm0 0" fill="rgb(91.764706%,70.980392%,60%)"/><path d="M21.625 34.344v4.324c0 .418.258-1.102.621-.957a.992.992 0 0 0 .625-.922v-2.445c0-.418-.258-.774-.625-.926-.375.156-.621.52-.621.926zm0 0" fill="rgb(96.470588%,79.215686%,68.235294%)"/><path d="M25.754 37.598v1.187c-.344.11-.692.207-1.047.297l-.492.117c-.094.02-.188.04-.285.063-.028.004-.055.011-.086.015-.36.075-.723.137-1.086.192-.375.054-.754.101-1.133.133v-2.004c0-.57.23-1.082.605-1.457.192-.2.43-.356.688-.457a2.06 2.06 0 0 1 1.926.203c.57.386.91 1.027.91 1.71zm0 0" fill="rgb(91.764706%,70.980392%,60%)"/><path d="M24.215 37.598v1.601c-.094.02-.188.04-.285.063-.028.004-.055.011-.086.015-.36.075-.723.137-1.086.192-.375.054-.754.101-1.133.133v-2.004c0-.57.23-1.082.605-1.457.192-.2.43-.356.688-.457a2.057 2.057 0 0 1 1.297 1.914zm0 0" fill="rgb(96.470588%,79.215686%,68.235294%)"/></svg>