<svg xmlns="http://www.w3.org/2000/svg" width="40pt" height="40pt" viewBox="0 0 40 40"><path d="M40 20c0 11.047-8.953 20-20 20S0 31.047 0 20 8.953 0 20 0s20 8.953 20 20zm0 0" fill="rgb(40%,72.941176%,92.941176%)"/><path d="M40 12.488c0 6.438-5.219 11.657-11.656 11.657-6.438 0-11.657-5.22-11.657-11.657S21.907.832 28.345.832 40 6.051 40 12.488zm0 0" fill="rgb(96.862745%,30.980392%,30.980392%)"/><path d="M37.387 12.488a9.04 9.04 0 0 1-9.043 9.043c-4.992 0-9.04-4.047-9.04-9.043 0-4.992 4.048-9.043 9.04-9.043a9.043 9.043 0 0 1 9.043 9.043zm0 0" fill="rgb(94.901961%,94.117647%,92.54902%)"/><path d="M34.738 12.488a6.392 6.392 0 1 1-12.785 0 6.392 6.392 0 1 1 12.785 0zm0 0" fill="rgb(96.862745%,30.980392%,30.980392%)"/><path d="M31.605 12.488a3.26 3.26 0 1 1-6.523 0 3.263 3.263 0 0 1 6.523 0zm0 0" fill="rgb(94.901961%,94.117647%,92.54902%)"/><path d="M29.574 12.488a1.23 1.23 0 1 1-2.46 0 1.23 1.23 0 0 1 2.46 0zm0 0" fill="rgb(96.862745%,30.980392%,30.980392%)"/><path d="M39.305 8.836l-2.16-1.496-.247-2.613-3.68 2.152.165 1.715-5.45 3.191.825 1.41 5.449-3.191 1.418.984zm0 0" fill="rgb(86.666667%,18.823529%,20%)"/><path d="M39.305 8.836l-2.16-1.496-.247-2.613-3.68 2.152.165 1.715-5.45 3.191.825 1.41 5.449-3.191 1.418.984zm0 0" fill="rgb(86.666667%,18.823529%,20%)"/><path d="M37.078 10.137l-1.453.851-1.375-.957a6.437 6.437 0 0 0-.871-1.484l-.16-1.668 1.449-.848a8.988 8.988 0 0 1 2.41 4.106zm0 0" fill="rgb(84.705882%,83.529412%,81.568627%)"/><path d="M31.063 5.25l3.015-3.016.899 2.47-3.012 3.01zm0 0" fill="rgb(90.980392%,78.823529%,20.392157%)"/><path d="M36.133 5.855l-7.043 7.043a.816.816 0 1 1-1.152-1.156l7.039-7.039zm0 0" fill="rgb(23.921569%,25.490196%,34.901961%)"/><path d="M35.008 9.191L38.02 6.18l-2.465-.903-3.012 3.016zm0 0" fill="rgb(100%,88.235294%,32.156863%)"/><path d="M23.324 35.121v2.285a19.827 19.827 0 0 1-6.558 2.324c-.008 0-.02 0-.032.004a19.911 19.911 0 0 1-9.468-4.312A20.013 20.013 0 0 1 4.19 32.25a7.44 7.44 0 0 1 6.86-4.559h4.84c.539 0 1.066.059 1.574.168.031.004.058.012.09.02.082.02.168.039.254.062h.007a7.476 7.476 0 0 1 2.305 1.07 7.429 7.429 0 0 1 3.203 6.11zm0 0" fill="rgb(44.313725%,21.568627%,45.882353%)"/><path d="M23.324 35.121v4.602A20.2 20.2 0 0 1 20 40c-4.84 0-9.277-1.719-12.734-4.578v-.3a7.427 7.427 0 0 1 5.504-7.177c.117-.03.234-.062.351-.086a7.432 7.432 0 0 1 1.578-.168h1.192c.539 0 1.066.059 1.574.168.031.004.058.012.09.02.082.02.168.039.254.062h.007a7.476 7.476 0 0 1 2.305 1.07 7.429 7.429 0 0 1 3.203 6.11zm0 0" fill="rgb(52.156863%,30.980392%,53.72549%)"/><path d="M17.832 27.86l-.016.081-2.476 11.512a19.758 19.758 0 0 1-4.055-1.45L9.121 27.946l-.016-.086zm0 0" fill="rgb(94.901961%,94.117647%,92.54902%)"/><path d="M13.469 30.734l-3.348 1.86-1.016-4.735 2.079-1.226m2.285 4.101l3.347 1.86 1.016-4.735-2.078-1.226" fill="rgb(84.705882%,83.529412%,81.568627%)"/><path d="M3.477 25.898V14.691c0-1.14.191-2.254.566-3.316A10.003 10.003 0 0 1 15.027 4.82a9.989 9.989 0 0 1 8.434 9.871v11.207" fill="rgb(23.921569%,25.490196%,34.901961%)"/><path d="M7.586 15.129c0 3.965 2.324 8.55 3.598 10.77H3.477V14.69c0-1.14.191-2.254.566-3.316a10.005 10.005 0 0 1 9.352-6.676c-3.07.078-5.81 5.004-5.81 10.43zm0 0" fill="rgb(16.470588%,18.431373%,30.980392%)"/><path d="M16.121 24.828v3.254a2.655 2.655 0 0 1-2.652 2.652 2.652 2.652 0 0 1-2.653-2.652v-3.254zm0 0" fill="rgb(91.764706%,70.980392%,60%)"/><path d="M16.121 27.875v.207c0 1.191-.785 2.2-1.867 2.535a2.66 2.66 0 0 1-1.848-2.191c.18.012.356.02.535.02a9.1 9.1 0 0 0 1.473-.122 8.86 8.86 0 0 0 1.707-.449zm-9.926-8.379a2.47 2.47 0 0 1-2.465 2.465 2.468 2.468 0 0 1-2.468-2.465 2.469 2.469 0 0 1 2.863-2.437 2.47 2.47 0 0 1 2.07 2.437zm0 0" fill="rgb(96.470588%,79.215686%,68.235294%)"/><path d="M6.195 19.496a2.47 2.47 0 0 1-2.07 2.434 9.16 9.16 0 0 1-.328-2.434c0-.844.113-1.66.328-2.437a2.47 2.47 0 0 1 2.07 2.437zm0 0" fill="rgb(91.764706%,70.980392%,60%)"/><path d="M4.61 19.496a.88.88 0 1 1-1.761-.003.88.88 0 0 1 1.76.003zm0 0" fill="rgb(91.764706%,70.980392%,60%)"/><path d="M19.8 16.348v8.476a9.157 9.157 0 0 1-4.859 2.418l-.043.004a9.054 9.054 0 0 1-1.43.113c-5.066 0-9.175-4.109-9.175-9.175V14.69c0-.449.035-.886.094-1.32 2.183 1.57 5.312 1.418 7.308-.469a5.239 5.239 0 0 0 1.38-2.152 6.033 6.033 0 0 0 1.894 3.777c1.332 1.258 3.09 1.864 4.832 1.82zm0 0" fill="rgb(91.764706%,70.980392%,60%)"/><path d="M19.8 16.348v8.476a9.157 9.157 0 0 1-4.859 2.418l-.043.004a9.17 9.17 0 0 1-7.746-9.062V14.69c0-.093 0-.187.004-.277 1.617.164 3.297-.34 4.54-1.512a5.239 5.239 0 0 0 1.378-2.152 6.033 6.033 0 0 0 1.895 3.777c1.332 1.258 3.09 1.864 4.832 1.82zm0 0" fill="rgb(96.470588%,79.215686%,68.235294%)"/><path d="M18.398 17.41c0-.844-.683-1.523-1.527-1.523-.84 0-1.523.68-1.523 1.523m-3.758 0a1.523 1.523 0 1 0-3.047 0" fill="rgb(91.764706%,70.980392%,60%)"/><path d="M11.11 18.059a1.042 1.042 0 0 1-2.083 0c0-.575.465-1.043 1.04-1.043.574 0 1.038.468 1.038 1.043zm6.804 0a1.04 1.04 0 0 1-1.043 1.039 1.042 1.042 0 1 1 1.043-1.04zm0 0" fill="rgb(23.921569%,25.490196%,34.901961%)"/><path d="M14.512 20.68H12.43a.45.45 0 0 1 0-.899h2.082a.45.45 0 0 1 .441.45c0 .242-.2.445-.441.449zm-1.043 2.84a4.614 4.614 0 0 1-2.235-.579.41.41 0 0 1-.164-.554.41.41 0 0 1 .555-.16 3.819 3.819 0 0 0 3.688 0 .41.41 0 0 1 .59.472.416.416 0 0 1-.196.242c-.7.387-1.469.579-2.238.579zm0 0" fill="rgb(91.764706%,70.980392%,60%)"/><path d="M10.895 17.875a.445.445 0 1 1-.891 0 .446.446 0 0 1 .89 0zm6.859 0a.448.448 0 0 1-.45.445.445.445 0 1 1 0-.89c.247 0 .45.199.45.445zm0 0" fill="rgb(100%,100%,100%)"/><path d="M19.715 20.594a1.143 1.143 0 1 1-2.286-.005 1.143 1.143 0 0 1 2.286.005zm-10.203 0c0 .629-.512 1.14-1.145 1.14a1.143 1.143 0 1 1 0-2.285c.633 0 1.145.512 1.145 1.145zm12.285 14.023v2.465c0 .422.258.781.629.93a.983.983 0 0 0 .37.074c.556 0 1.005-.45 1.005-1.004v-2.465a1.003 1.003 0 0 0-2.004 0zm0 0" fill="rgb(91.764706%,70.980392%,60%)"/><path d="M21.797 34.617v4.363c0 .418.258-1.117.629-.968.367-.149.629-.508.629-.93v-2.465c0-.418-.262-.781-.63-.93a1 1 0 0 0-.629.93zm0 0" fill="rgb(96.470588%,79.215686%,68.235294%)"/><path d="M25.96 37.898v1.2c-.347.105-.698.207-1.054.293-.164.043-.332.082-.496.12-.098.02-.191.044-.289.063-.027.004-.055.012-.086.016a19.012 19.012 0 0 1-2.238.328v-2.02c0-.574.234-1.093.61-1.472.198-.2.433-.356.695-.457.246-.102.511-.153.777-.153 1.148 0 2.082.934 2.082 2.082zm0 0" fill="rgb(91.764706%,70.980392%,60%)"/><path d="M24.41 37.898v1.614c-.098.02-.191.043-.289.062-.027.004-.055.012-.086.016a19.012 19.012 0 0 1-2.238.328v-2.02c0-.574.234-1.093.61-1.472.198-.2.433-.356.695-.457a2.078 2.078 0 0 1 1.308 1.93zm0 0" fill="rgb(96.470588%,79.215686%,68.235294%)"/></svg>