<svg xmlns="http://www.w3.org/2000/svg" width="28" height="28" viewBox="0 0 21 21"><defs><radialGradient id="a" gradientUnits="userSpaceOnUse" cx="158.429" cy="578.088" fx="158.429" fy="578.088" r="65" gradientTransform="matrix(0 -.31532 .29335 0 -163.927 72.387)"><stop offset="0" stop-color="rgb(100%,86.666667%,33.333333%)"/><stop offset=".1" stop-color="rgb(100%,86.666667%,33.333333%)"/><stop offset=".5" stop-color="rgb(100%,32.941176%,24.313725%)"/><stop offset="1" stop-color="rgb(78.431373%,21.568627%,67.058824%)"/></radialGradient><radialGradient id="b" gradientUnits="userSpaceOnUse" cx="147.694" cy="473.455" fx="147.694" fy="473.455" r="65" gradientTransform="matrix(.02767 .1382 -.56983 .1141 262.397 -72.783)"><stop offset="0" stop-color="rgb(21.568627%,44.313725%,78.431373%)"/><stop offset=".128" stop-color="rgb(21.568627%,44.313725%,78.431373%)"/><stop offset="1" stop-color="rgb(40%,0%,100%)" stop-opacity="0"/></radialGradient></defs><path d="M10.504.16C6.188.16 4.926.164 4.68.184c-.887.074-1.438.214-2.04.511-.46.23-.828.496-1.187.871-.656.68-1.055 1.52-1.2 2.516-.07.484-.089.582-.093 3.05v3.364c0 4.313.004 5.574.024 5.82.074.864.207 1.407.496 1.997a4.345 4.345 0 0 0 2.824 2.308c.426.11.894.172 1.5.2.258.011 2.867.019 5.48.019 2.61 0 5.223-.004 5.473-.016.7-.035 1.105-.09 1.555-.203a4.326 4.326 0 0 0 2.824-2.312c.281-.579.426-1.145.488-1.961.016-.176.02-3.02.02-5.856s-.004-5.672-.02-5.851c-.066-.832-.207-1.387-.496-1.98a4.126 4.126 0 0 0-.887-1.212C18.758.797 17.921.4 16.921.254c-.48-.07-.577-.09-3.05-.094zm0 0" fill="url(#a)"/><path d="M10.504.16C6.188.16 4.926.164 4.68.184c-.887.074-1.438.214-2.04.511-.46.23-.828.496-1.187.871-.656.68-1.055 1.52-1.2 2.516-.07.484-.089.582-.093 3.05v3.364c0 4.313.004 5.574.024 5.82.074.864.207 1.407.496 1.997a4.345 4.345 0 0 0 2.824 2.308c.426.11.894.172 1.5.2.258.011 2.867.019 5.48.019 2.61 0 5.223-.004 5.473-.016.7-.035 1.105-.09 1.555-.203a4.326 4.326 0 0 0 2.824-2.312c.281-.579.426-1.145.488-1.961.016-.176.02-3.02.02-5.856s-.004-5.672-.02-5.851c-.066-.832-.207-1.387-.496-1.98a4.126 4.126 0 0 0-.887-1.212C18.758.797 17.921.4 16.921.254c-.48-.07-.577-.09-3.05-.094zm0 0" fill="url(#b)"/><path d="M10.5 2.863c-2.074 0-2.332.008-3.148.047-.813.035-1.368.164-1.852.356a3.73 3.73 0 0 0-1.355.879 3.8 3.8 0 0 0-.88 1.351c-.19.488-.32 1.043-.355 1.856-.035.812-.047 1.074-.047 3.148s.008 2.332.047 3.148c.035.813.164 1.368.356 1.852.195.504.453.93.879 1.355a3.8 3.8 0 0 0 1.351.88c.488.19 1.043.32 1.856.355.812.039 1.074.047 3.148.047s2.332-.008 3.148-.047c.813-.035 1.368-.164 1.856-.356a3.8 3.8 0 0 0 1.351-.879c.422-.425.684-.851.88-1.355.187-.484.316-1.04.355-1.852.035-.816.047-1.074.047-3.148s-.012-2.336-.047-3.148c-.04-.813-.168-1.368-.356-1.856a3.8 3.8 0 0 0-.879-1.351 3.73 3.73 0 0 0-1.355-.88c-.484-.19-1.04-.32-1.852-.355-.816-.039-1.074-.047-3.148-.047zm-.684 1.375h.684c2.04 0 2.281.008 3.086.047.746.031 1.148.156 1.418.262.355.137.61.305.879.57.265.27.433.524.57.88.106.269.23.671.262 1.417.039.805.047 1.047.047 3.086 0 2.035-.008 2.277-.047 3.082-.031.746-.156 1.148-.262 1.418-.137.355-.305.61-.57.879-.27.266-.524.43-.88.57-.269.106-.671.23-1.417.262-.805.039-1.047.047-3.086.047-2.04 0-2.281-.008-3.086-.047-.742-.035-1.148-.156-1.418-.262a2.441 2.441 0 0 1-.879-.57 2.441 2.441 0 0 1-.57-.879c-.106-.27-.23-.672-.262-1.418-.039-.805-.043-1.047-.043-3.086 0-2.039.004-2.281.043-3.086.035-.742.156-1.148.262-1.418.14-.355.305-.61.57-.875a2.4 2.4 0 0 1 .88-.574c.269-.106.675-.227 1.417-.262.707-.031.977-.043 2.402-.043zm4.762 1.27a.916.916 0 1 0-.004 1.832.916.916 0 0 0 .004-1.832zM10.5 6.578A3.924 3.924 0 0 0 6.578 10.5 3.922 3.922 0 1 0 10.5 6.578zm0 1.375a2.547 2.547 0 0 1 0 5.094A2.544 2.544 0 0 1 7.957 10.5 2.544 2.544 0 0 1 10.5 7.953zm0 0" fill="rgb(100%,100%,100%)"/></svg>