<svg height="512pt" viewBox="0 0 512 512" width="512pt" xmlns="http://www.w3.org/2000/svg"><path d="M511.996 256c0 141.383-114.613 255.996-255.996 255.996C114.613 511.996 0 397.383 0 256 0 114.613 114.613 0 256 0c141.383 0 255.996 114.613 255.996 256zm0 0" fill="#66baed"/><path d="M512 159.86c0 82.394-66.793 149.187-149.188 149.187s-149.19-66.793-149.19-149.188 66.796-149.187 149.19-149.187S512 77.465 512 159.859zm0 0" fill="#f74f4f"/><path d="M478.543 159.86c0 63.917-51.813 115.73-115.73 115.73s-115.735-51.813-115.735-115.73S298.895 44.124 362.812 44.124 478.543 95.94 478.543 159.858zm0 0" fill="#f2f0ec"/><path d="M444.645 159.86c0 45.195-36.637 81.835-81.833 81.835s-81.835-36.64-81.835-81.836 36.64-81.836 81.836-81.836 81.832 36.641 81.832 81.836zm0 0" fill="#f74f4f"/><path d="M404.574 159.86c0 23.066-18.695 41.765-41.761 41.765s-41.766-18.7-41.766-41.766 18.7-41.765 41.765-41.765 41.762 18.699 41.762 41.765zm0 0" fill="#f2f0ec"/><path d="M378.555 159.86c0 8.695-7.047 15.742-15.743 15.742s-15.746-7.047-15.746-15.743 7.051-15.746 15.747-15.746 15.742 7.051 15.742 15.746zm0 0" fill="#f74f4f"/><path d="M503.086 113.078l-27.621-19.14-3.16-33.458-47.082 27.555 2.074 21.985-69.762 40.82 10.555 18.039 69.762-40.824L456 140.633zm0 0" fill="#dd3033"/><path d="M503.086 113.078l-27.621-19.14-3.16-33.458-47.082 27.555 2.074 21.985-69.762 40.82 10.555 18.039 69.762-40.824L456 140.633zm0 0" fill="#dd3033"/><path d="M474.578 129.766L456 140.633l-17.617-12.215a81.483 81.483 0 0 0-11.149-19.02v-.007l-2.015-21.36 18.554-10.855c14.559 14.242 25.372 32.32 30.805 52.59zm0 0" fill="#d8d5d0"/><path d="M397.617 67.184l38.574-38.575 11.524 31.567-38.574 38.578zm0 0" fill="#e8c934"/><path d="M462.492 74.953l-90.129 90.133c-4.082 4.078-10.695 4.078-14.777 0-4.082-4.082-4.082-10.7 0-14.777l90.129-90.133zm0 0" fill="#3d4159"/><path d="M448.098 117.668l38.574-38.578-31.567-11.524-38.574 38.575zm0 0" fill="#ffe152"/><path d="M298.527 449.574v29.246a253.932 253.932 0 0 1-83.902 29.707c-.148.02-.285.043-.43.063-45.59-7.48-87.113-27-121.207-55.203a256.966 256.966 0 0 1-39.34-40.563c11.274-26.883 34.543-47.511 63.122-55.148a94.185 94.185 0 0 1 16.875-2.914 95.05 95.05 0 0 1 7.785-.317h61.949c6.93 0 13.68.735 20.18 2.145.375.074.75.156 1.117.238 1.097.254 2.195.524 3.27.817.03.011.054.011.085.02a94.643 94.643 0 0 1 29.54 13.71c24.753 17.176 40.956 45.797 40.956 78.2zm0 0" fill="#713775"/><path d="M298.527 449.574v58.899A256.844 256.844 0 0 1 256 511.996c-61.941 0-118.738-21.996-163.012-58.61v-3.812c0-44.011 29.883-81.043 70.477-91.898a89.738 89.738 0 0 1 4.496-1.086 94.03 94.03 0 0 1 12.379-1.828 95.086 95.086 0 0 1 7.785-.317h15.254c6.93 0 13.68.735 20.18 2.145.375.074.75.156 1.117.238 1.097.254 2.195.524 3.27.817.03.011.054.011.085.02a94.643 94.643 0 0 1 29.54 13.71c24.753 17.176 40.956 45.797 40.956 78.2zm0 0" fill="#854f89"/><path d="M228.258 356.59l-.227 1.074-31.672 147.332a252.828 252.828 0 0 1-51.898-18.527L116.77 357.676l-.23-1.086zm0 0" fill="#f2f0ec"/><path d="M172.395 393.39l-42.829 23.805-13.027-60.605 26.61-15.672m29.246 52.473l42.832 23.804 13.027-60.605-26.613-15.672" fill="#d8d5d0"/><path d="M44.52 331.512V188.035c0-14.578 2.433-28.86 7.23-42.453 17.953-51.098 66.445-85.441 120.652-85.441 6.715 0 13.414.523 19.926 1.55 29.785 4.653 57.106 19.856 76.918 42.805 20.024 23.195 31.05 52.863 31.05 83.54v143.476" fill="#3d4159"/><path d="M97.125 193.637c0 50.75 29.719 109.465 46.04 137.875h-98.65V188.039c0-14.578 2.434-28.86 7.231-42.457 17.848-50.8 65.89-85.043 119.723-85.43-39.317.985-74.344 64.063-74.344 133.485zm0 0" fill="#2a2f4f"/><path d="M206.352 317.797v41.656c0 15.25-10.055 28.14-23.907 32.422a33.948 33.948 0 0 1-10.043 1.516c-18.742 0-33.937-15.192-33.937-33.938v-41.656zm0 0" fill="#eab599"/><path d="M206.352 356.816v2.637c0 15.25-10.055 28.14-23.907 32.422-12.496-3.844-21.89-14.707-23.625-28.004 2.266.14 4.547.211 6.836.211 6.422 0 12.719-.512 18.852-1.516a115.66 115.66 0 0 0 21.844-5.75zM79.3 249.531c0 15.711-11.48 28.742-26.512 31.16a31.64 31.64 0 0 1-5.055.403c-17.437 0-31.566-14.125-31.566-31.563s14.129-31.566 31.566-31.566c1.723 0 3.414.14 5.055.406 15.031 2.418 26.512 15.445 26.512 31.16zm0 0" fill="#f6caae"/><g fill="#eab599"><path d="M79.3 249.531c0 15.711-11.48 28.742-26.51 31.16a117.375 117.375 0 0 1-4.188-31.16c0-10.785 1.457-21.234 4.187-31.16 15.031 2.418 26.512 15.445 26.512 31.16zm0 0"/><path d="M59.016 249.531c0 6.23-5.051 11.281-11.282 11.281s-11.28-5.05-11.28-11.28 5.05-11.282 11.28-11.282 11.282 5.05 11.282 11.281zm0 0"/><path d="M253.457 209.227V317.73c-16.773 16.004-38.277 27.094-62.203 30.95l-.574.093c-5.946.95-12.051 1.418-18.278 1.418-64.855 0-117.433-52.578-117.433-117.433v-44.723c0-5.723.406-11.355 1.199-16.863 27.941 20.094 68.004 18.11 93.531-6.02 8.453-7.98 14.324-17.492 17.645-27.574 1.851 17.66 9.93 34.848 24.242 48.379 17.043 16.09 39.562 23.855 61.871 23.27zm0 0"/></g><path d="M253.457 209.227V317.73c-16.773 16.004-38.277 27.094-62.203 30.95l-.574.093c-56.176-8.777-99.14-57.386-99.14-116.015v-44.723c0-1.191.019-2.37.062-3.55 20.71 2.12 42.214-4.317 58.097-19.333 8.453-7.98 14.324-17.492 17.645-27.574 1.851 17.66 9.93 34.848 24.242 48.379 17.043 16.09 39.562 23.855 61.871 23.27zm0 0" fill="#f6caae"/><path d="M235.477 222.84c0-10.774-8.73-19.504-19.504-19.504-10.774 0-19.508 8.73-19.508 19.504m-48.106 0c0-10.774-8.734-19.504-19.504-19.504-10.773 0-19.507 8.73-19.507 19.504" fill="#eab599"/><path d="M142.176 231.145c0 7.355-5.965 13.32-13.32 13.32-7.36 0-13.325-5.965-13.325-13.32 0-7.36 5.965-13.325 13.324-13.325 7.356 0 13.32 5.965 13.32 13.325zm87.117 0c0 7.355-5.965 13.32-13.32 13.32-7.36 0-13.325-5.965-13.325-13.32 0-7.36 5.965-13.325 13.325-13.325 7.355 0 13.32 5.965 13.32 13.325zm0 0" fill="#3d4159"/><path d="M185.734 264.688H159.09a5.748 5.748 0 0 1 0-11.497h26.644a5.749 5.749 0 0 1 0 11.496zm-13.32 36.359c-9.836 0-19.668-2.465-28.633-7.395a5.222 5.222 0 0 1-2.062-7.093 5.231 5.231 0 0 1 7.097-2.063c14.774 8.125 32.418 8.125 47.196 0a5.228 5.228 0 0 1 7.093 2.063 5.219 5.219 0 0 1-2.062 7.093c-8.961 4.93-18.797 7.395-28.629 7.395zm0 0" fill="#eab599"/><path d="M139.46 228.793c0 3.152-2.554 5.707-5.706 5.707s-5.711-2.555-5.711-5.707a5.71 5.71 0 0 1 11.418 0zm87.77 0a5.706 5.706 0 1 1-11.414 0 5.706 5.706 0 1 1 11.414 0zm0 0" fill="#fff"/><path d="M252.344 263.594c0 8.078-6.551 14.629-14.63 14.629s-14.628-6.551-14.628-14.63c0-8.081 6.55-14.628 14.629-14.628s14.629 6.547 14.629 14.629zm-130.614 0c0 8.078-6.55 14.629-14.628 14.629-8.079 0-14.63-6.551-14.63-14.63 0-8.081 6.551-14.628 14.63-14.628 8.078 0 14.628 6.547 14.628 14.629zm157.262 179.523v31.543c0 5.39 3.332 10.004 8.047 11.895 1.477.601 3.086.925 4.777.925 7.079 0 12.82-5.742 12.82-12.82v-31.543c0-7.082-5.741-12.824-12.82-12.824-1.691 0-3.3.328-4.777.922a12.686 12.686 0 0 0-4.289 2.836 12.78 12.78 0 0 0-3.758 9.066zm0 0" fill="#eab599"/><path d="M278.992 443.117v55.817c0 5.39 3.332-14.27 8.047-12.38 4.715-1.89 8.047-6.503 8.047-11.894v-31.543c0-5.39-3.332-10.008-8.047-11.902a12.686 12.686 0 0 0-4.289 2.836 12.78 12.78 0 0 0-3.758 9.066zm0 0" fill="#f6caae"/><path d="M332.277 485.11v15.32a242.066 242.066 0 0 1-13.457 3.793 220.504 220.504 0 0 1-6.394 1.523c-1.211.274-2.446.543-3.668.797-.367.07-.73.156-1.106.227-4.62.964-9.3 1.777-14.023 2.476a260.576 260.576 0 0 1-14.64 1.727v-25.864c0-7.355 2.988-14.011 7.804-18.84a26.526 26.526 0 0 1 8.914-5.89 26.557 26.557 0 0 1 9.926-1.914c14.715 0 26.644 11.933 26.644 26.644zm0 0" fill="#eab599"/><path d="M312.426 485.11v20.636c-1.211.274-2.446.543-3.668.797-.367.07-.73.156-1.106.227-4.62.964-9.3 1.777-14.023 2.476a260.576 260.576 0 0 1-14.64 1.727v-25.864c0-7.355 2.988-14.011 7.804-18.84a26.526 26.526 0 0 1 8.914-5.89c9.8 3.937 16.719 13.531 16.719 24.73zm0 0" fill="#f6caae"/></svg>