<svg height="512pt" viewBox="0 0 512 512" width="512pt" xmlns="http://www.w3.org/2000/svg"><path d="M512 256c0 62.371-22.309 119.535-59.383 163.945-18.46 22.11-40.582 41.075-65.43 55.934a256.91 256.91 0 0 1-28.945 14.89 281.226 281.226 0 0 1-7.793 3.239 280.647 280.647 0 0 1-4.054 1.566 251.469 251.469 0 0 1-14.118 4.86 242.064 242.064 0 0 1-13.457 3.793 220.504 220.504 0 0 1-6.394 1.523 226.38 226.38 0 0 1-3.668.797c-.367.07-.73.156-1.11.23a243.937 243.937 0 0 1-14.023 2.473c-4.824.71-9.715 1.29-14.637 1.727A257.234 257.234 0 0 1 256 512c-17.43 0-34.45-1.746-50.906-5.066C88.094 483.34 0 379.957 0 256 0 114.613 114.613 0 256 0s256 114.613 256 256zm0 0" fill="#3fb777"/><path d="M512 159.86c0 82.398-66.793 149.19-149.191 149.19-82.395 0-149.188-66.792-149.188-149.19 0-82.395 66.793-149.188 149.188-149.188C445.207 10.672 512 77.465 512 159.859zm0 0" fill="#f74f4f"/><path d="M478.543 159.86c0 63.917-51.816 115.734-115.734 115.734-63.914 0-115.73-51.817-115.73-115.735 0-63.914 51.816-115.73 115.73-115.73 63.918 0 115.734 51.816 115.734 115.73zm0 0" fill="#f2f0ec"/><path d="M444.645 159.86c0 45.199-36.637 81.835-81.836 81.835-45.196 0-81.832-36.636-81.832-81.836 0-45.195 36.636-81.832 81.832-81.832 45.199 0 81.836 36.637 81.836 81.832zm0 0" fill="#f74f4f"/><path d="M404.574 159.86c0 23.066-18.699 41.765-41.765 41.765-23.063 0-41.762-18.7-41.762-41.766 0-23.062 18.7-41.761 41.762-41.761 23.066 0 41.765 18.699 41.765 41.761zm0 0" fill="#f2f0ec"/><path d="M378.555 159.86c0 8.695-7.047 15.745-15.746 15.745-8.696 0-15.743-7.05-15.743-15.746s7.047-15.742 15.743-15.742c8.699 0 15.746 7.047 15.746 15.742zm0 0" fill="#f74f4f"/><path d="M306.906 449.578v57.356A257.171 257.171 0 0 1 256 512c-79.016 0-149.66-35.797-196.617-92.055 9.926-30.343 34.71-53.96 65.765-62.265a89.588 89.588 0 0 1 4.493-1.086 94.089 94.089 0 0 1 12.382-1.828c2.57-.211 5.16-.317 7.786-.317h61.949c6.93 0 13.68.735 20.18 2.145.375.07.75.156 1.117.238 1.097.25 2.195.523 3.27.816.03.008.05.008.081.02a94.623 94.623 0 0 1 29.543 13.71c24.75 17.177 40.957 45.798 40.957 78.2zm0 0" fill="#3d4159"/><path d="M236.637 356.594l-.23 1.074-32.055 149.11c-.38-.075-.743-.16-1.11-.231a230.843 230.843 0 0 1-10.062-2.32 251.952 251.952 0 0 1-27.575-8.653 280.647 280.647 0 0 1-4.054-1.566 281.226 281.226 0 0 1-7.793-3.238l-28.61-133.09-.23-1.086zm0 0" fill="#dde8ed"/><path d="M206.324 388.773l-25.535 40.961-25.543-40.96" fill="#f74f4f"/><path d="M203.242 506.547a230.843 230.843 0 0 1-10.062-2.32 251.952 251.952 0 0 1-27.575-8.653 280.647 280.647 0 0 1-4.054-1.566l19.238-74.93zm0 0" fill="#f74f4f"/><path d="M180.777 393.395l-42.828 23.8-13.027-60.601 26.61-15.676m29.245 52.477l42.832 23.8 13.028-60.601-26.61-15.676" fill="#bfd5de"/><path d="M238.258 438.375h13.582l-28.836 70.156c-1.54.25-3.086.492-4.629.719a249.268 249.268 0 0 1-25.195-5.023l43.457-152.86 29.312 14.785zm-72.653 57.2a254.486 254.486 0 0 1-40.792-19.696l-15.41-37.504h13.581l-27.691-72.223 29.625-13.73zm0 0" fill="#2a2f4f"/><path d="M214.727 317.8v41.657c0 15.25-10.055 28.14-23.903 32.422a33.867 33.867 0 0 1-10.047 1.516c-18.742 0-33.937-15.192-33.937-33.938v-41.656zm0 0" fill="#eab599"/><path d="M214.727 356.82v2.637c0 15.25-10.055 28.14-23.903 32.422-12.496-3.84-21.894-14.707-23.629-28 2.266.137 4.547.207 6.836.207 6.422 0 12.719-.508 18.852-1.516a115.66 115.66 0 0 0 21.844-5.75zM87.676 249.535c0 15.711-11.48 28.742-26.508 31.16a31.688 31.688 0 0 1-5.059.403c-17.437 0-31.566-14.125-31.566-31.563s14.129-31.566 31.566-31.566c1.727 0 3.414.14 5.059.406 15.027 2.418 26.508 15.445 26.508 31.16zm0 0" fill="#f6caae"/><path d="M87.676 249.535c0 15.711-11.48 28.742-26.508 31.16a117.376 117.376 0 0 1-4.191-31.16 117.19 117.19 0 0 1 4.191-31.16c15.027 2.418 26.508 15.445 26.508 31.16zm0 0" fill="#eab599"/><path d="M67.39 249.535c0 6.23-5.05 11.281-11.28 11.281s-11.282-5.05-11.282-11.28c0-6.231 5.05-11.282 11.281-11.282s11.282 5.05 11.282 11.281zm0 0" fill="#eab599"/><path d="M273.89 249.535c0 15.711 11.481 28.742 26.512 31.16a31.64 31.64 0 0 0 5.055.403c17.438 0 31.566-14.125 31.566-31.563s-14.128-31.566-31.566-31.566c-1.723 0-3.414.14-5.055.406-15.03 2.418-26.511 15.445-26.511 31.16zm0 0" fill="#f6caae"/><path d="M273.89 249.535c0 15.711 11.481 28.742 26.512 31.16a117.375 117.375 0 0 0 4.188-31.16 117.31 117.31 0 0 0-4.188-31.16c-15.03 2.418-26.511 15.445-26.511 31.16zm0 0" fill="#eab599"/><path d="M298.223 188.04v44.722c0 58.441-42.692 106.925-98.594 115.922l-.574.093c-5.946.95-12.051 1.422-18.278 1.422-64.855 0-117.437-52.582-117.437-117.437v-44.93c.023-13.586 2.351-26.637 6.637-38.766 16.058-45.707 59.613-78.472 110.8-78.472h.012c6.215 0 12.328.48 18.285 1.422 56.172 8.777 99.149 57.382 99.149 116.023zm0 0" fill="#eab599"/><path d="M316.738 249.535c0 6.23-5.05 11.281-11.281 11.281s-11.281-5.05-11.281-11.28c0-6.231 5.05-11.282 11.281-11.282s11.281 5.05 11.281 11.281zm0 0" fill="#eab599"/><path d="M298.227 188.04v44.722c0 58.441-42.696 106.925-98.598 115.922l-.574.093c-56.172-8.777-99.14-57.386-99.14-116.015v-44.723c0-58.64 42.976-107.246 99.16-116.023 56.175 8.777 99.152 57.382 99.152 116.023zm0 0" fill="#f6caae"/><path d="M149.637 207.953h78.175v42.582h-78.175zm0 0" fill="#eab599"/><path d="M102.059 222.45v.01c.289 17.864 14.75 32.24 32.617 32.45.785.008 1.57.008 2.351-.004 18.012-.242 32.461-14.965 32.461-32.976v.523-10.45l-.343-12.968a4.252 4.252 0 0 0-2.864-3.89 92.74 92.74 0 0 0-61.379.128 4.242 4.242 0 0 0-2.843 3.997v23.703" fill="#dde8ed"/><path d="M107.281 222.973H96.832V199.27c0-4 2.547-7.586 6.332-8.922 20.89-7.375 43.914-7.422 64.836-.133 3.703 1.289 6.262 4.777 6.363 8.683l.352 13.106v10.45h-10.45v-10.38l-.327-12.207c-18.31-6.222-38.372-6.183-56.657.11zm0 0" fill="#3d4159"/><path d="M135.777 260.14c-.386 0-.777 0-1.164-.007-20.847-.246-37.441-16.758-37.777-37.59l5.223-.094h5.226c.242 15.063 12.3 27.059 27.453 27.235.742.011 1.48.007 2.219 0 15.059-.204 27.309-12.653 27.309-27.754h10.449c0 20.785-16.875 37.922-37.617 38.203-.442.004-.88.008-1.32.008zm0 0" fill="#ffe152"/><path d="M194.531 222.45v.01c.29 17.864 14.754 32.24 32.617 32.45.786.008 1.57.008 2.352-.004 18.012-.242 32.465-14.965 32.465-32.976v.523-10.45l-.348-12.968a4.252 4.252 0 0 0-2.863-3.89 92.728 92.728 0 0 0-61.375.128 4.245 4.245 0 0 0-2.848 3.997v23.703" fill="#dde8ed"/><path d="M199.758 222.973h-10.45V199.27c0-4 2.544-7.586 6.329-8.922 20.89-7.375 43.914-7.422 64.836-.137 3.703 1.293 6.261 4.781 6.363 8.684l.352 13.109v10.45h-10.45v-10.38l-.328-12.207c-18.308-6.222-38.37-6.183-56.656.11v22.996zm0 0" fill="#3d4159"/><path d="M228.25 260.14c-.387 0-.773 0-1.164-.007-20.848-.246-37.441-16.758-37.777-37.59l5.222-.094h5.227c.242 15.063 12.304 27.059 27.457 27.235.738.011 1.48.007 2.219 0 15.054-.204 27.304-12.653 27.304-27.754h10.45c0 20.785-16.872 37.922-37.614 38.203-.445.004-.883.008-1.324.008zm0 0" fill="#ffe152"/><path d="M169.14 199.035h25.391v10.45h-25.39zm129.083-9.992v10.973l-28.418 8.964-.086.032-6.258 2.078-3.3-9.914 7.98-2.656.086-.032zm-194.516 12.133l-3.293 9.914-7.168-2.383-29.906-9.863v-11.012l31.484 10.387zm52.066 19.52c0 7.359-5.964 13.324-13.324 13.324-7.355 0-13.32-5.965-13.32-13.325 0-7.355 5.965-13.32 13.32-13.32 7.36 0 13.324 5.965 13.324 13.32zm76.668 0c0 7.359-5.964 13.324-13.32 13.324-7.36 0-13.324-5.965-13.324-13.325 0-7.355 5.965-13.32 13.324-13.32 7.356 0 13.32 5.965 13.32 13.32zm0 0" fill="#3d4159"/><path d="M153.059 218.348a5.71 5.71 0 1 1-5.711-5.711 5.713 5.713 0 0 1 5.71 5.71zm77.32 0a5.71 5.71 0 0 1-11.418 0c0-3.153 2.559-5.711 5.71-5.711s5.708 2.558 5.708 5.71zm0 0" fill="#fff"/><path d="M196.387 256.332H167.27a5.746 5.746 0 0 1-5.747-5.746c0-3.176 2.57-5.75 5.747-5.75h29.117a5.746 5.746 0 0 1 5.746 5.75 5.746 5.746 0 0 1-5.746 5.746zm-15.602 34.27c-9.836 0-19.668-2.465-28.633-7.391a5.231 5.231 0 0 1-2.062-7.098 5.232 5.232 0 0 1 7.097-2.062c14.778 8.125 32.418 8.125 47.196 0a5.228 5.228 0 0 1 5.035 9.16c-8.965 4.926-18.8 7.39-28.633 7.39zm0 0" fill="#eab599"/><path d="M298.227 147.453v45.813h-21.86V157.39l-157.781-29.32-33.383-6.208v71.403h-21.86v-45.813c0-52.223 42.329-94.555 94.544-94.555h45.797c1.242 0 2.488.024 3.73.086 50.48 1.942 90.813 43.489 90.813 94.47zm0 0" fill="#2a2f4f"/><path d="M298.227 147.453v45.813h-21.86V157.39l-157.781-29.32c8.695-41.755 44.922-73.395 88.828-75.087 50.48 1.942 90.813 43.489 90.813 94.47zm0 0" fill="#3d4159"/><path d="M503.086 113.082l-27.621-19.14-3.16-33.458-47.082 27.551 2.074 21.985-69.766 40.824 10.555 18.035 69.766-40.824L456 140.633zm0 0" fill="#dd3033"/><path d="M503.086 113.082l-27.621-19.14-3.16-33.458-47.082 27.551 2.074 21.985-69.766 40.824 10.555 18.035 69.766-40.824L456 140.633zm0 0" fill="#dd3033"/><path d="M474.578 129.766L456 140.633l-17.617-12.215a81.458 81.458 0 0 0-11.149-19.016v-.011l-2.015-21.356 18.554-10.86c14.555 14.243 25.372 32.321 30.805 52.59zm0 0" fill="#d8d5d0"/><path d="M397.613 67.188l38.578-38.575 11.524 31.567-38.574 38.574zm0 0" fill="#e8c934"/><path d="M462.492 74.957l-90.129 90.129c-4.082 4.082-10.699 4.082-14.777 0-4.082-4.078-4.082-10.695 0-14.777l90.129-90.13zm0 0" fill="#3d4159"/><path d="M448.098 117.668l38.574-38.574-31.567-11.528-38.578 38.579zm0 0" fill="#ffe152"/><path d="M278.992 443.121v31.543c0 5.39 3.328 10.004 8.047 11.895 1.477.601 3.086.925 4.777.925 7.079 0 12.82-5.742 12.82-12.82v-31.543c0-7.082-5.741-12.824-12.82-12.824-1.691 0-3.3.328-4.777.922a12.686 12.686 0 0 0-4.289 2.836 12.787 12.787 0 0 0-3.758 9.066zm0 0" fill="#eab599"/><path d="M278.992 443.121v55.817c0 5.39 3.328-14.27 8.047-12.38 4.715-1.89 8.043-6.503 8.043-11.894v-31.543c0-5.39-3.328-10.008-8.043-11.902a12.734 12.734 0 0 0-4.289 2.832 12.803 12.803 0 0 0-3.758 9.07zm0 0" fill="#f6caae"/><path d="M332.277 485.113v15.32a242.064 242.064 0 0 1-13.457 3.794 220.504 220.504 0 0 1-6.394 1.523 226.38 226.38 0 0 1-3.668.797c-.367.07-.73.156-1.11.23a243.937 243.937 0 0 1-14.023 2.473c-4.824.71-9.715 1.29-14.637 1.727v-25.864c0-7.355 2.989-14.011 7.805-18.84a26.488 26.488 0 0 1 8.914-5.89 26.527 26.527 0 0 1 9.926-1.914c14.71 0 26.644 11.933 26.644 26.644zm0 0" fill="#eab599"/><path d="M312.426 485.113v20.637a226.38 226.38 0 0 1-3.668.797c-.367.07-.73.156-1.11.23a243.937 243.937 0 0 1-14.023 2.473c-4.824.71-9.715 1.29-14.637 1.727v-25.864c0-7.355 2.989-14.011 7.805-18.84a26.488 26.488 0 0 1 8.914-5.89c9.8 3.937 16.719 13.531 16.719 24.73zm0 0" fill="#f6caae"/></svg>